<?xml version="1.0" encoding="UTF-8" standalone="no"?>
<svg
   xmlns:dc="http://purl.org/dc/elements/1.1/"
   xmlns:cc="http://creativecommons.org/ns#"
   xmlns:rdf="http://www.w3.org/1999/02/22-rdf-syntax-ns#"
   xmlns:svg="http://www.w3.org/2000/svg"
   xmlns="http://www.w3.org/2000/svg"
   id="box"
   viewBox="0 0 500 500"
   version="1.1">
  <metadata
     id="metadata3727">
    <rdf:RDF>
      <cc:Work
         rdf:about="">
        <dc:format>image/svg+xml</dc:format>
        <dc:type
           rdf:resource="http://purl.org/dc/dcmitype/StillImage" />
        <dc:title>ctr-logo</dc:title>
      </cc:Work>
    </rdf:RDF>
  </metadata>
  <defs
     id="defs3716">
    <style
       id="style3714">.cls-1{fill:transparent;stroke:#66c5af;stroke-miterlimit:10;stroke-width:19px}.cls-2{fill:#66c5af}</style>
  </defs>
  <title
     id="title3718">ctr-logo</title>
  <rect
     class="cls-1"
     x="48.17"
     y="47.25"
     width="400"
     height="400"
     rx="49.16"
     ry="49.16"
     id="rect3720"
     style="fill:none;fill-opacity:1" />
  <path
     class="cls-2"
     d="m 129.36,417.33 c -7.5599,0.15628 -15.07448,-1.20382 -22.1,-4 -6.09818,-2.50011 -11.563607,-6.3259 -16,-11.2 -4.416356,-4.94263 -7.723757,-10.77321 -9.7,-17.1 -2.206844,-7.0874 -3.286672,-14.47747 -3.2,-21.9 -0.085,-7.47843 1.098433,-14.91716 3.5,-22 2.151017,-6.35225 5.513032,-12.22728 9.9,-17.3 4.328681,-4.91121 9.69007,-8.8042 15.7,-11.4 6.53713,-2.79995 13.58913,-4.19672 20.7,-4.1 4.69227,0.002 9.37585,0.40341 14,1.2 4.59062,0.7798 9.08342,2.05388 13.4,3.8 l -4.2,16.2 c -3.10099,-1.43241 -6.3554,-2.50603 -9.7,-3.2 -3.84572,-0.81819 -7.76826,-1.2205 -11.7,-1.2 -10.4,0 -18.36667,4.36667 -23.9,10.9 -5.53333,6.53333 -8.3,14.56667 -8.3,27.1 -0.0521,5.19486 0.586831,10.37358 1.9,15.4 1.12181,4.38194 3.16753,8.07339 6,11.6 2.8118,3.39292 6.41881,6.03807 10.5,7.7 4.96904,1.92725 10.27228,2.84512 15.6,2.7 4.50544,0.0458 9.00133,-0.32389 13.4,-1.3 3.22657,-0.68011 6.37597,-1.78524 9.4,-3.1 l 2.6,16 c -1.44579,0.82741 -2.99174,1.46595 -4.6,1.9 -2.23645,0.65447 -4.50637,1.18857 -6.8,1.6 -2.53333,0.46667 -5.23333,0.86667 -8.1,1.2 -2.75481,0.32545 -5.52604,0.49239 -8.3,0.5 z m 65.2,-105.08 H 234 v 16.9 h -39.4 v 45.38 c -0.086,4.33143 0.31657,8.65875 1.2,12.9 0.57205,2.907 1.80367,4.74393 3.6,7.1 1.56731,1.91173 3.64942,3.33452 6,4.1 2.71783,0.84656 5.55385,1.2517 8.4,1.2 5.6,0 10.1,-0.63333 13.5,-1.9 3.4,-1.26667 5.76667,-2.16667 7.1,-2.7 l 3.6,16.3 c -3.17402,1.4114 -6.44998,2.58139 -9.8,3.5 -5.20318,1.47268 -10.59302,2.1801 -16,2.1 -7.06667,0 -12.9,-0.9 -17.5,-2.7 -4.37197,-1.63253 -8.2116,-4.43443 -11.1,-8.1 -2.95016,-3.92835 -4.96775,-8.47649 -5.9,-13.3 -1.2075,-6.02341 -1.77731,-12.15724 -1.7,-18.3 V 260 l 18.6,18.73 v 33.52 z M 296,308.07 c 1.6,0 3.43333,0.10333 5.5,0.31 2.06667,0.20667 4.1,0.48 6.1,0.82 2,0.34667 3.83333,0.68 5.5,1 1.25007,0.23912 2.48543,0.54963 3.7,0.93 l -3.2,16.51 c -2.39002,-0.81572 -4.82796,-1.48365 -7.3,-2 -4.31452,-0.83815 -8.70568,-1.21693 -13.1,-1.13 -3.46428,-3e-4 -6.91818,0.37862 -10.3,1.13 -3.4,0.76 -5.63333,1.57667 -6.7,1.85 v 90.03 H 257.6 V 314.87 c 5.3533,-1.92246 10.83301,-3.47281 16.4,-4.64 7.23377,-1.51261 14.61017,-2.23684 22,-2.16 z"
     id="path3722"
     style="fill:#66c5af" />
</svg>
